<svg xmlns="http://www.w3.org/2000/svg" width="77.916" height="60.59" viewBox="0 0 77.916 60.59">
  <path id="Icon_awesome-home" data-name="Icon awesome-home" d="M37.924,17.972,12.986,38.511V60.679a2.164,2.164,0,0,0,2.164,2.164L30.307,62.8a2.164,2.164,0,0,0,2.153-2.164V47.694a2.164,2.164,0,0,1,2.164-2.164h8.657a2.164,2.164,0,0,1,2.164,2.164V60.63A2.164,2.164,0,0,0,47.61,62.8l15.152.042a2.164,2.164,0,0,0,2.164-2.164V38.5L39.993,17.972A1.649,1.649,0,0,0,37.924,17.972Zm39.392,13.96L66.008,22.611V3.877a1.623,1.623,0,0,0-1.623-1.623H56.81a1.623,1.623,0,0,0-1.623,1.623V13.7L43.077,3.735a6.492,6.492,0,0,0-8.251,0L.588,31.932a1.623,1.623,0,0,0-.216,2.286l3.449,4.193a1.623,1.623,0,0,0,2.287.22L37.924,12.426a1.649,1.649,0,0,1,2.069,0L71.81,38.632a1.623,1.623,0,0,0,2.286-.216l3.449-4.193a1.623,1.623,0,0,0-.23-2.29Z" transform="translate(0.001 -2.254)" fill="#34e277"/>
</svg>
