<svg xmlns="http://www.w3.org/2000/svg" width="26.28" height="26.179" viewBox="0 0 26.28 26.179">
  <path id="Icon_awesome-search" data-name="Icon awesome-search" d="M24.836,21.769l-4.9-4.9a1.18,1.18,0,0,0-.836-.344h-.8a10.225,10.225,0,1,0-1.771,1.77v.8a1.179,1.179,0,0,0,.344.836l4.9,4.9a1.176,1.176,0,0,0,1.667,0l1.392-1.392a1.186,1.186,0,0,0,0-1.672ZM10.23,16.522a6.294,6.294,0,1,1,6.3-6.294A6.291,6.291,0,0,1,10.23,16.522Z" transform="translate(0.5 0.5)" fill="#2799fa" stroke="#f5f0f0" stroke-width="1"/>
</svg>
