<svg xmlns="http://www.w3.org/2000/svg" width="26.304" height="24.061" viewBox="0 0 26.304 24.061">
  <g id="패스_89" data-name="패스 89" transform="translate(0 0)" fill="#2799fa">
    <path d="M 13.15200424194336 23.45556449890137 C 9.951894760131836 21.25864601135254 7.306331157684326 19.0453929901123 5.285684108734131 16.87422180175781 C 3.431104183197021 14.88150310516357 2.094184160232544 12.91740226745605 1.312034249305725 11.03646278381348 C 0.6967942714691162 9.556412696838379 0.4289842545986176 8.137932777404785 0.5160542130470276 6.820482730865479 C 0.5940142273902893 5.640982627868652 0.9529142379760742 4.564302921295166 1.582784295082092 3.620362758636475 C 2.867074251174927 1.695652723312378 5.193274021148682 0.5000027418136597 7.653584480285645 0.5000027418136597 C 9.71369457244873 0.5000027418136597 11.52901458740234 1.331512689590454 12.76512432098389 2.841362714767456 L 13.15200424194336 3.313912630081177 L 13.53888416290283 2.841362714767456 C 14.77499389648438 1.331512689590454 16.5903148651123 0.5000027418136597 18.65042495727539 0.5000027418136597 C 21.11098480224609 0.5000027418136597 23.43727493286133 1.695572733879089 24.72149467468262 3.620152711868286 C 25.3513240814209 4.564052581787109 25.71018409729004 5.640722751617432 25.78810501098633 6.820242881774902 C 25.8751335144043 8.137722969055176 25.60727500915527 9.556282997131348 24.9919548034668 11.03652286529541 C 24.20982360839844 12.91740226745605 22.87290382385254 14.88150310516357 21.01832389831543 16.87422180175781 C 18.99767684936523 19.0453929901123 16.35211372375488 21.25864601135254 13.15200424194336 23.45556449890137 Z" stroke="none"/>
    <path d="M 13.15200424194336 22.84803009033203 C 16.19501113891602 20.73623657226562 18.71622657775879 18.61388206481934 20.65231513977051 16.53358268737793 C 22.46629333496094 14.58448314666748 23.77103424072266 12.67040252685547 24.53025436401367 10.84460258483887 C 25.92958450317383 7.478292942047119 25.18044471740723 5.20878267288208 24.30557441711426 3.897682666778564 C 23.11293411254883 2.110322713851929 20.94600486755371 1.00000274181366 18.65042495727539 1.00000274181366 C 16.74303436279297 1.00000274181366 15.06512451171875 1.766432762145996 13.9257640838623 3.158102750778198 L 13.15200424194336 4.103212833404541 L 12.37824440002441 3.158102750778198 C 11.23888397216797 1.766432762145996 9.560964584350586 1.00000274181366 7.653584480285645 1.00000274181366 C 5.3582444190979 1.00000274181366 3.191414356231689 2.110402822494507 1.998684287071228 3.897882699966431 C 1.123774290084839 5.209062576293945 0.374544233083725 7.478602886199951 1.773704290390015 10.844482421875 C 2.532974243164062 12.67040252685547 3.837714195251465 14.58448314666748 5.651694297790527 16.53358268737793 C 7.587781429290771 18.61388206481934 10.1089973449707 20.73623657226562 13.15200424194336 22.84803009033203 M 13.15200424194336 24.06103324890137 C 6.080254077911377 19.25683212280273 2.37140417098999 14.88630294799805 0.8503542542457581 11.22844314575195 C -3.224465370178223 1.425833463668823 8.41444206237793 -3.262068271636963 13.15200424194336 2.524622678756714 C 17.88956451416016 -3.262064218521118 29.52847671508789 1.425830602645874 25.45365333557129 11.22844314575195 C 23.93260383605957 14.88630294799805 20.2237548828125 19.25683212280273 13.15200424194336 24.06103324890137 Z" stroke="none" fill="#2799fa"/>
  </g>
</svg>
