<svg xmlns="http://www.w3.org/2000/svg" width="26.304" height="24.061" viewBox="0 0 26.304 24.061">
  <g id="패스_91" data-name="패스 91" transform="translate(0)" fill="none">
    <path d="M13.152,24.061C6.08,19.257,2.371,14.886.85,11.228c-4.075-9.8,7.564-14.491,12.3-8.7,4.738-5.787,16.376-1.1,12.3,8.7C23.933,14.886,20.224,19.257,13.152,24.061Z" stroke="none"/>
    <path d="M 13.15200424194336 22.84803009033203 C 16.19501113891602 20.73623657226562 18.71622657775879 18.61388206481934 20.65231513977051 16.53358268737793 C 22.46629333496094 14.58448314666748 23.77103424072266 12.67040252685547 24.53025436401367 10.84460258483887 C 25.92958450317383 7.478292942047119 25.18044471740723 5.20878267288208 24.30557441711426 3.897682666778564 C 23.11293411254883 2.110322713851929 20.94600486755371 1.00000274181366 18.65042495727539 1.00000274181366 C 16.74303436279297 1.00000274181366 15.06512451171875 1.766432762145996 13.9257640838623 3.158102750778198 L 13.15200424194336 4.103212833404541 L 12.37824440002441 3.158102750778198 C 11.23888397216797 1.766432762145996 9.560964584350586 1.00000274181366 7.653584480285645 1.00000274181366 C 5.3582444190979 1.00000274181366 3.191414356231689 2.110402822494507 1.998684287071228 3.897882699966431 C 1.123774290084839 5.209062576293945 0.374544233083725 7.478602886199951 1.773704290390015 10.844482421875 C 2.532974243164062 12.67040252685547 3.837714195251465 14.58448314666748 5.651694297790527 16.53358268737793 C 7.587781429290771 18.61388206481934 10.1089973449707 20.73623657226562 13.15200424194336 22.84803009033203 M 13.15200424194336 24.06103324890137 C 6.080254077911377 19.25683212280273 2.37140417098999 14.88630294799805 0.8503542542457581 11.22844314575195 C -3.224465370178223 1.425833463668823 8.41444206237793 -3.262068271636963 13.15200424194336 2.524622678756714 C 17.88956451416016 -3.262064218521118 29.52847671508789 1.425830602645874 25.45365333557129 11.22844314575195 C 23.93260383605957 14.88630294799805 20.2237548828125 19.25683212280273 13.15200424194336 24.06103324890137 Z" stroke="none" fill="#2799fa"/>
  </g>
</svg>
