<svg xmlns="http://www.w3.org/2000/svg" width="33.839" height="32.003" viewBox="0 0 33.839 32.003">
  <g id="Icon_ionic-ios-stats" data-name="Icon ionic-ios-stats" transform="translate(-5.125 -4)">
    <path id="패스_48" data-name="패스 48" d="M13.121,35.5H17.6a.7.7,0,0,0,.746-.646V5.146A.7.7,0,0,0,17.6,4.5H13.121a.7.7,0,0,0-.746.646V34.858A.7.7,0,0,0,13.121,35.5Z" transform="translate(2.206)" fill="#fff" stroke="#2799fa" stroke-width="1"/>
    <path id="패스_49" data-name="패스 49" d="M6.371,33.168h4.478a.7.7,0,0,0,.746-.646V20.9a.7.7,0,0,0-.746-.646H6.371a.7.7,0,0,0-.746.646V32.522A.7.7,0,0,0,6.371,33.168Z" transform="translate(0 2.335)" fill="#fff" stroke="#2799fa" stroke-width="1"/>
    <path id="패스_50" data-name="패스 50" d="M19.881,33.835H24.34a.707.707,0,0,0,.756-.654V16.4a.707.707,0,0,0-.756-.654H19.881a.707.707,0,0,0-.756.654V33.181A.707.707,0,0,0,19.881,33.835Z" transform="translate(4.412 1.668)" fill="#fff" stroke="#2799fa" stroke-width="1"/>
    <path id="패스_51" data-name="패스 51" d="M25.875,9.654V34.182a.707.707,0,0,0,.756.654H31.09a.707.707,0,0,0,.756-.654V9.654A.707.707,0,0,0,31.09,9H26.631A.707.707,0,0,0,25.875,9.654Z" transform="translate(6.618 0.667)" fill="#fff" stroke="#2799fa" stroke-width="1"/>
  </g>
</svg>
